<svg width="48" height="48" viewBox="0 0 48 48" fill="none" xmlns="http://www.w3.org/2000/svg">
<rect width="48" height="48" rx="24" fill="#EBEBEB"/>
<path d="M24 2C11.8509 2 2 11.8509 2 24C2 36.1491 11.8509 46 24 46C36.1491 46 46 36.1491 46 24C46 11.8509 36.1491 2 24 2ZM31.0763 24.3388L20.3513 32.142C20.2925 32.1842 20.2232 32.2094 20.151 32.2149C20.0788 32.2203 20.0065 32.2057 19.9421 32.1727C19.8776 32.1397 19.8235 32.0896 19.7857 32.0279C19.7479 31.9661 19.7278 31.8952 19.7277 31.8228V16.2263C19.7274 16.1538 19.7473 16.0826 19.785 16.0206C19.8228 15.9587 19.877 15.9084 19.9415 15.8753C20.0061 15.8423 20.0786 15.8278 20.1509 15.8334C20.2233 15.839 20.2926 15.8645 20.3513 15.9071L31.0763 23.7054C31.127 23.7412 31.1683 23.7887 31.1969 23.8438C31.2254 23.8989 31.2403 23.96 31.2403 24.0221C31.2403 24.0842 31.2254 24.1453 31.1969 24.2004C31.1683 24.2555 31.127 24.303 31.0763 24.3388Z" fill="#C04D4D"/>
</svg>
